<?xml version="1.0" encoding="utf-8"?>
<svg xmlns="http://www.w3.org/2000/svg" style="margin: auto; display: block; shape-rendering: auto;" width="280" height="250" preserveAspectRatio="xMidYMid">
<style type="text/css">
  text {
    text-anchor: middle; font-size: 80px; opacity: 0;
  }
</style>
<g style="transform-origin:140px 125px;transform:scale(1)">
<g transform="translate(140,125)">
  <g transform="translate(0,0)"><g class="path" style="transform: scale(0.91); transform-origin: -29.24px -0.509869px; animation: 1s linear -0.44s infinite normal forwards running breath-76b86a0b-0ddb-44f9-a2f5-6b4afff0d951;"><path d="M16-11.56L16-11.56L16-11.56Q16-2.08 20.20 2.08L20.20 2.08L20.20 2.08Q24.40 6.24 29.76 6.24L29.76 6.24L29.76 6.24Q37.04 6.24 43.64 1.40L43.64 1.40L43.64 1.40Q50.24-3.44 54-10.76L54-10.76L54-10.76Q57.76-18.08 57.76-25.76L57.76-25.76L57.76-25.76Q57.76-33.44 54.32-37.80L54.32-37.80L54.32-37.80Q50.88-42.16 44.56-42.16L44.56-42.16L44.56-42.16Q36.96-42.16 32.64-36.88L32.64-36.88L32.64-36.88Q28.32-31.60 28.32-24.48L28.32-24.48L28.32-24.48Q28.32-21.36 29.28-19.04L29.28-19.04L29.28-19.04Q30.24-16.72 31.44-15.60L31.44-15.60L31.44-15.60Q32.64-14.48 34.16-13.76L34.16-13.76L34.16-13.76Q36.16-12.80 37.60-12.80L37.60-12.80L37.52-11.20L37.52-11.20Q36.16-11.20 34.04-12.16L34.04-12.16L34.04-12.16Q31.92-13.12 30.48-14.40L30.48-14.40L30.48-14.40Q29.04-15.68 27.88-18.32L27.88-18.32L27.88-18.32Q26.72-20.96 26.72-24.48L26.72-24.48L26.72-24.48Q26.72-32.24 31.48-37.96L31.48-37.96L31.48-37.96Q36.24-43.68 44.56-43.68L44.56-43.68L44.56-43.68Q51.52-43.68 55.44-38.88L55.44-38.88L55.44-38.88Q59.36-34.08 59.36-25.52L59.36-25.52L59.36-25.52Q59.36-19.52 57-13.48L57-13.48L57-13.48Q54.64-7.44 50.60-2.64L50.60-2.64L50.60-2.64Q46.56 2.16 40.52 5.20L40.52 5.20L40.52 5.20Q34.48 8.24 27.68 8.24L27.68 8.24L27.68 8.24Q18 8.24 12.56 2.36L12.56 2.36L12.56 2.36Q7.12-3.52 7.12-13.92L7.12-13.92L7.12-13.92Q7.12-28.24 16.24-38.24L16.24-38.24L16.24-38.24Q25.36-48.24 38.96-48.80L38.96-48.80L39.04-47.20L39.04-47.20Q33.84-47.04 29.72-44.60L29.72-44.60L29.72-44.60Q25.60-42.16 23.08-38.44L23.08-38.44L23.08-38.44Q20.56-34.72 18.88-29.76L18.88-29.76L18.88-29.76Q16-21.04 16-11.56" fill="#f05125" stroke="none" stroke-width="none" transform="translate(-62.47998809814453,19.77013018290201)" style="fill: rgb(240, 81, 37);"></path></g><g class="path" style="transform: scale(0.91); transform-origin: 20.28px 4.57013px; animation: 1s linear -0.22s infinite normal forwards running breath-76b86a0b-0ddb-44f9-a2f5-6b4afff0d951;"><path d="M95.52-0.88L95.52-0.88L95.52-0.88Q97.44-0.88 99.52-3.12L99.52-3.12L100.72-2.16L100.72-2.16Q100.16-1.04 98.24-0.16L98.24-0.16L98.24-0.16Q96.32 0.72 94 0.72L94 0.72L94 0.72Q86.72 0.72 86.72-5.84L86.72-5.84L86.72-5.84Q86.72-8.64 88.16-15.84L88.16-15.84L88.16-15.84Q89.60-23.04 89.60-25.28L89.60-25.28L89.60-25.28Q89.60-28.72 86.32-28.72L86.32-28.72L86.32-28.72Q83.68-28.72 81.24-25.28L81.24-25.28L81.24-25.28Q78.80-21.84 77.20-15.84L77.20-15.84L74.48-0.88L74.48-0.88Q76.96-1.12 78.56-3.12L78.56-3.12L79.76-2.16L79.76-2.16Q77.36 0.72 73.76 0.72L73.76 0.72L73.76 0.72Q70.16 0.72 68.12-1.12L68.12-1.12L68.12-1.12Q66.08-2.96 66.08-5.92L66.08-5.92L66.08-5.92Q66.08-7.04 67.36-14.72L67.36-14.72L70-29.52L70-29.52Q67.60-29.28 66-27.28L66-27.28L64.80-28.24L64.80-28.24Q67.20-31.12 70.84-31.12L70.84-31.12L70.84-31.12Q74.48-31.12 76.48-29.28L76.48-29.28L76.48-29.28Q78.48-27.44 78.48-24.08L78.48-24.08L78.48-23.60L78.48-23.60Q81.76-31.12 88.72-31.12L88.72-31.12L88.72-31.12Q93.44-31.12 96.08-28.44L96.08-28.44L96.08-28.44Q98.72-25.76 98.72-21.04L98.72-21.04L98.72-21.04Q98.72-18.56 97.20-11.48L97.20-11.48L97.20-11.48Q95.68-4.40 95.52-0.88" fill="#f05125" stroke="none" stroke-width="none" transform="translate(-62.47998809814453,19.77013018290201)" style="fill: rgb(253, 184, 19);"></path></g><g class="path" style="transform: scale(0.91); transform-origin: 55.76px 4.57013px; animation: 1s linear 0s infinite normal forwards running breath-76b86a0b-0ddb-44f9-a2f5-6b4afff0d951;"><path d="M121.76-31.12L121.76-31.12L121.76-31.12Q131.92-31.12 131.92-23.04L131.92-23.04L131.92-23.04Q131.92-18 127.16-15.40L127.16-15.40L127.16-15.40Q122.40-12.80 113.60-12.72L113.60-12.72L113.60-12.72Q113.44-9.84 113.44-8.16L113.44-8.16L113.44-8.16Q113.44-4.56 115.08-2.84L115.08-2.84L115.08-2.84Q116.72-1.12 119.20-1.12L119.20-1.12L119.20-1.12Q121.68-1.12 123.72-2.08L123.72-2.08L123.72-2.08Q125.76-3.04 126.96-4.36L126.96-4.36L126.96-4.36Q128.16-5.68 129.04-7.12L129.04-7.12L129.04-7.12Q130.64-9.76 130.64-10.48L130.64-10.48L132.08-9.84L132.08-9.84Q131.84-8.56 130.64-6.44L130.64-6.44L130.64-6.44Q129.44-4.32 128-2.96L128-2.96L128-2.96Q126.56-1.60 123.76-0.44L123.76-0.44L123.76-0.44Q120.96 0.72 117.52 0.72L117.52 0.72L117.52 0.72Q111.04 0.72 107.72-2.36L107.72-2.36L107.72-2.36Q104.40-5.44 104.40-10.80L104.40-10.80L104.40-10.80Q104.40-20.32 109.12-25.72L109.12-25.72L109.12-25.72Q113.84-31.12 121.76-31.12zM129.92-23.04L129.92-23.04Q129.92-25.68 128.36-27.40L128.36-27.40L128.36-27.40Q126.80-29.12 123.72-29.12L123.72-29.12L123.72-29.12Q120.64-29.12 117.72-25.44L117.72-25.44L117.72-25.44Q114.80-21.76 113.84-14.56L113.84-14.56L113.84-14.56Q129.92-14.64 129.92-23.04L129.92-23.04" fill="#f05125" stroke="none" stroke-width="none" transform="translate(-62.47998809814453,19.77013018290201)" style="fill: rgb(127, 187, 66);"></path></g></g>
</g>
</g>
<style id="breath-76b86a0b-0ddb-44f9-a2f5-6b4afff0d951" data-anikit="">@keyframes breath-76b86a0b-0ddb-44f9-a2f5-6b4afff0d951
{
  0% {
    animation-timing-function: cubic-bezier(0.9647,0.2413,-0.0705,0.7911);
    transform: scale(0.9099999999999999);
  }
  51% {
    animation-timing-function: cubic-bezier(0.9226,0.2631,-0.0308,0.7628);
    transform: scale(1.02994);
  }
  100% {
    transform: scale(0.9099999999999999);
  }
}</style></svg>
